<svg width="300" height="300" viewBox="0 0 300 300" fill="none" xmlns="http://www.w3.org/2000/svg">
<rect x="215" y="99" width="15" height="27" fill="white"/>
<rect x="70" y="99" width="15" height="27" fill="white"/>
<path d="M245 114C252.18 114 258 119.82 258 127V172C258 179.18 252.18 185 245 185H55C47.8203 185 42 179.18 42 172V127C42 119.82 47.8203 114 55 114H245ZM74.5 155C72.0147 155 70 157.015 70 159.5C70 161.985 72.0147 164 74.5 164H151.5C153.985 164 156 161.985 156 159.5C156 157.015 153.985 155 151.5 155H74.5ZM178.5 142C174.358 142 171 145.358 171 149.5C171 153.642 174.358 157 178.5 157C182.642 157 186 153.642 186 149.5C186 145.358 182.642 142 178.5 142ZM207.5 142C203.358 142 200 145.358 200 149.5C200 153.642 203.358 157 207.5 157C211.642 157 215 153.642 215 149.5C215 145.358 211.642 142 207.5 142ZM74.5 135C72.0147 135 70 137.015 70 139.5C70 141.985 72.0147 144 74.5 144H151.5C153.985 144 156 141.985 156 139.5C156 137.015 153.985 135 151.5 135H74.5Z" fill="white"/>
<path d="M245 28C252.18 28 258 33.8203 258 41V86C258 93.1797 252.18 99 245 99H55C47.8203 99 42 93.1797 42 86V41C42 33.8203 47.8203 28 55 28H245ZM74.5 69C72.0147 69 70 71.0147 70 73.5C70 75.9853 72.0147 78 74.5 78H151.5C153.985 78 156 75.9853 156 73.5C156 71.0147 153.985 69 151.5 69H74.5ZM178.5 55C174.358 55 171 58.3579 171 62.5C171 66.6421 174.358 70 178.5 70C182.642 70 186 66.6421 186 62.5C186 58.3579 182.642 55 178.5 55ZM207.5 55C203.358 55 200 58.3579 200 62.5C200 66.6421 203.358 70 207.5 70C211.642 70 215 66.6421 215 62.5C215 58.3579 211.642 55 207.5 55ZM74.5 49C72.0147 49 70 51.0147 70 53.5C70 55.9853 72.0147 58 74.5 58H151.5C153.985 58 156 55.9853 156 53.5C156 51.0147 153.985 49 151.5 49H74.5Z" fill="white"/>
<rect x="215" y="184" width="15" height="27" fill="white"/>
<path d="M245 200C252.18 200 258 205.82 258 213V258C258 265.18 252.18 271 245 271H55C47.8203 271 42 265.18 42 258V213C42 205.82 47.8203 200 55 200H245ZM74.5 241C72.0147 241 70 243.015 70 245.5C70 247.985 72.0147 250 74.5 250H151.5C153.985 250 156 247.985 156 245.5C156 243.015 153.985 241 151.5 241H74.5ZM178.5 228C174.358 228 171 231.358 171 235.5C171 239.642 174.358 243 178.5 243C182.642 243 186 239.642 186 235.5C186 231.358 182.642 228 178.5 228ZM207.5 228C203.358 228 200 231.358 200 235.5C200 239.642 203.358 243 207.5 243C211.642 243 215 239.642 215 235.5C215 231.358 211.642 228 207.5 228ZM74.5 221C72.0147 221 70 223.015 70 225.5C70 227.985 72.0147 230 74.5 230H151.5C153.985 230 156 227.985 156 225.5C156 223.015 153.985 221 151.5 221H74.5Z" fill="white"/>
<rect x="70" y="178" width="15" height="27" fill="white"/>
</svg>
